<svg width="1510" height="1668" viewBox="0 0 1510 1668" fill="none" xmlns="http://www.w3.org/2000/svg">
<path fill-rule="evenodd" clip-rule="evenodd" d="M-2 252H34.54C69.82 252 141.64 252 213.46 240C243.116 235.13 272.564 228.285 301.889 221.468L301.89 221.468L301.89 221.468C344.83 211.486 387.505 201.565 430.18 198C502 192 573.82 204 645.64 216C717.46 228 790.54 240 862.36 228C886.3 224 910.24 217.333 934.18 210.667C982.06 197.333 1029.94 184 1077.82 192C1103.83 196.347 1129.85 206.991 1155.92 217.66C1201.83 236.445 1247.93 255.307 1294.54 240C1366.36 216 1438.18 108 1473.46 54L1510 0V326V360V1308V1312V1416H1473.46C1438.18 1416 1366.36 1416 1294.54 1428C1264.88 1432.87 1235.44 1439.72 1206.11 1446.53C1163.17 1456.51 1120.5 1466.43 1077.82 1470C1006 1476 934.18 1464 862.36 1452C790.54 1440 717.46 1428 645.64 1440C621.7 1444 597.76 1450.67 573.82 1457.33C525.94 1470.67 478.06 1484 430.18 1476C404.165 1471.65 378.151 1461.01 352.076 1450.34C306.165 1431.55 260.069 1412.69 213.46 1428C141.64 1452 69.82 1560 34.54 1614L-2 1668V1312V1308V360V326V252Z" fill="url(#paint0_linear_109_398)"/>
<defs>
<linearGradient id="paint0_linear_109_398" x1="-2" y1="0" x2="1657.99" y2="1504.74" gradientUnits="userSpaceOnUse">
<stop stop-color="#3B2667"/>
<stop offset="1" stop-color="#BC78EC"/>
</linearGradient>
</defs>
</svg>
