<svg id="wave" style="transform:rotate(180deg); transition: 0.3s" viewBox="0 0 1440 280" version="1.1" xmlns="http://www.w3.org/2000/svg"><defs><linearGradient id="sw-gradient-0" x1="0" x2="0" y1="1" y2="0"><stop stop-color="rgba(59, 38, 103, 1)" offset="0%"></stop><stop stop-color="rgba(188, 120, 236, 1)" offset="100%"></stop></linearGradient></defs><path style="transform:translate(0, 0px); opacity:1" fill="url(#sw-gradient-0)" d="M0,28L34.3,37.3C68.6,47,137,65,206,60.7C274.3,56,343,28,411,56C480,84,549,168,617,177.3C685.7,187,754,121,823,98C891.4,75,960,93,1029,112C1097.1,131,1166,149,1234,163.3C1302.9,177,1371,187,1440,163.3C1508.6,140,1577,84,1646,79.3C1714.3,75,1783,121,1851,140C1920,159,1989,149,2057,130.7C2125.7,112,2194,84,2263,98C2331.4,112,2400,168,2469,168C2537.1,168,2606,112,2674,98C2742.9,84,2811,112,2880,107.3C2948.6,103,3017,65,3086,46.7C3154.3,28,3223,28,3291,23.3C3360,19,3429,9,3497,9.3C3565.7,9,3634,19,3703,46.7C3771.4,75,3840,121,3909,144.7C3977.1,168,4046,168,4114,140C4182.9,112,4251,56,4320,42C4388.6,28,4457,56,4526,88.7C4594.3,121,4663,159,4731,168C4800,177,4869,159,4903,149.3L4937.1,140L4937.1,280L4902.9,280C4868.6,280,4800,280,4731,280C4662.9,280,4594,280,4526,280C4457.1,280,4389,280,4320,280C4251.4,280,4183,280,4114,280C4045.7,280,3977,280,3909,280C3840,280,3771,280,3703,280C3634.3,280,3566,280,3497,280C3428.6,280,3360,280,3291,280C3222.9,280,3154,280,3086,280C3017.1,280,2949,280,2880,280C2811.4,280,2743,280,2674,280C2605.7,280,2537,280,2469,280C2400,280,2331,280,2263,280C2194.3,280,2126,280,2057,280C1988.6,280,1920,280,1851,280C1782.9,280,1714,280,1646,280C1577.1,280,1509,280,1440,280C1371.4,280,1303,280,1234,280C1165.7,280,1097,280,1029,280C960,280,891,280,823,280C754.3,280,686,280,617,280C548.6,280,480,280,411,280C342.9,280,274,280,206,280C137.1,280,69,280,34,280L0,280Z"></path></svg> 