<svg id="visual" viewBox="0 0 960 540" width="960" height="540" xmlns="http://www.w3.org/2000/svg" xmlns:xlink="http://www.w3.org/1999/xlink" version="1.1"><rect x="0" y="0" width="960" height="540" fill="#DBE4EE"></rect><path d="M0 423L22.8 423C45.7 423 91.3 423 137 424.2C182.7 425.3 228.3 427.7 274 424.2C319.7 420.7 365.3 411.3 411.2 406C457 400.7 503 399.3 548.8 392.3C594.7 385.3 640.3 372.7 686 369.8C731.7 367 777.3 374 823 381.5C868.7 389 914.3 397 937.2 401L960 405L960 541L937.2 541C914.3 541 868.7 541 823 541C777.3 541 731.7 541 686 541C640.3 541 594.7 541 548.8 541C503 541 457 541 411.2 541C365.3 541 319.7 541 274 541C228.3 541 182.7 541 137 541C91.3 541 45.7 541 22.8 541L0 541Z" fill="#3b2667"></path><path d="M0 416L22.8 412C45.7 408 91.3 400 137 397.7C182.7 395.3 228.3 398.7 274 402.8C319.7 407 365.3 412 411.2 412.2C457 412.3 503 407.7 548.8 409C594.7 410.3 640.3 417.7 686 419.3C731.7 421 777.3 417 823 412.5C868.7 408 914.3 403 937.2 400.5L960 398L960 541L937.2 541C914.3 541 868.7 541 823 541C777.3 541 731.7 541 686 541C640.3 541 594.7 541 548.8 541C503 541 457 541 411.2 541C365.3 541 319.7 541 274 541C228.3 541 182.7 541 137 541C91.3 541 45.7 541 22.8 541L0 541Z" fill="#583a87"></path><path d="M0 424L22.8 430.8C45.7 437.7 91.3 451.3 137 452.8C182.7 454.3 228.3 443.7 274 439.7C319.7 435.7 365.3 438.3 411.2 441.8C457 445.3 503 449.7 548.8 447.2C594.7 444.7 640.3 435.3 686 437.2C731.7 439 777.3 452 823 458.3C868.7 464.7 914.3 464.3 937.2 464.2L960 464L960 541L937.2 541C914.3 541 868.7 541 823 541C777.3 541 731.7 541 686 541C640.3 541 594.7 541 548.8 541C503 541 457 541 411.2 541C365.3 541 319.7 541 274 541C228.3 541 182.7 541 137 541C91.3 541 45.7 541 22.8 541L0 541Z" fill="#784ea8"></path><path d="M0 466L22.8 465.3C45.7 464.7 91.3 463.3 137 462C182.7 460.7 228.3 459.3 274 463.2C319.7 467 365.3 476 411.2 480.7C457 485.3 503 485.7 548.8 481.8C594.7 478 640.3 470 686 465.8C731.7 461.7 777.3 461.3 823 467C868.7 472.7 914.3 484.3 937.2 490.2L960 496L960 541L937.2 541C914.3 541 868.7 541 823 541C777.3 541 731.7 541 686 541C640.3 541 594.7 541 548.8 541C503 541 457 541 411.2 541C365.3 541 319.7 541 274 541C228.3 541 182.7 541 137 541C91.3 541 45.7 541 22.8 541L0 541Z" fill="#9963ca"></path><path d="M0 503L22.8 504.7C45.7 506.3 91.3 509.7 137 510.7C182.7 511.7 228.3 510.3 274 511.7C319.7 513 365.3 517 411.2 514C457 511 503 501 548.8 500.5C594.7 500 640.3 509 686 511.8C731.7 514.7 777.3 511.3 823 510C868.7 508.7 914.3 509.3 937.2 509.7L960 510L960 541L937.2 541C914.3 541 868.7 541 823 541C777.3 541 731.7 541 686 541C640.3 541 594.7 541 548.8 541C503 541 457 541 411.2 541C365.3 541 319.7 541 274 541C228.3 541 182.7 541 137 541C91.3 541 45.7 541 22.8 541L0 541Z" fill="#bc78ec"></path></svg>