<svg id="visual" viewBox="0 0 960 540" width="960" height="540" xmlns="http://www.w3.org/2000/svg" xmlns:xlink="http://www.w3.org/1999/xlink" version="1.1"><rect x="0" y="0" width="960" height="540" fill="#DBE4EE"></rect><path d="M0 115L22.8 115C45.7 115 91.3 115 137 113.8C182.7 112.7 228.3 110.3 274 113.8C319.7 117.3 365.3 126.7 411.2 132C457 137.3 503 138.7 548.8 145.7C594.7 152.7 640.3 165.3 686 168.2C731.7 171 777.3 164 823 156.5C868.7 149 914.3 141 937.2 137L960 133L960 0L937.2 0C914.3 0 868.7 0 823 0C777.3 0 731.7 0 686 0C640.3 0 594.7 0 548.8 0C503 0 457 0 411.2 0C365.3 0 319.7 0 274 0C228.3 0 182.7 0 137 0C91.3 0 45.7 0 22.8 0L0 0Z" fill="#3b2667"></path><path d="M0 122L22.8 126C45.7 130 91.3 138 137 140.3C182.7 142.7 228.3 139.3 274 135.2C319.7 131 365.3 126 411.2 125.8C457 125.7 503 130.3 548.8 129C594.7 127.7 640.3 120.3 686 118.7C731.7 117 777.3 121 823 125.5C868.7 130 914.3 135 937.2 137.5L960 140L960 0L937.2 0C914.3 0 868.7 0 823 0C777.3 0 731.7 0 686 0C640.3 0 594.7 0 548.8 0C503 0 457 0 411.2 0C365.3 0 319.7 0 274 0C228.3 0 182.7 0 137 0C91.3 0 45.7 0 22.8 0L0 0Z" fill="#583a87"></path><path d="M0 114L22.8 107.2C45.7 100.3 91.3 86.7 137 85.2C182.7 83.7 228.3 94.3 274 98.3C319.7 102.3 365.3 99.7 411.2 96.2C457 92.7 503 88.3 548.8 90.8C594.7 93.3 640.3 102.7 686 100.8C731.7 99 777.3 86 823 79.7C868.7 73.3 914.3 73.7 937.2 73.8L960 74L960 0L937.2 0C914.3 0 868.7 0 823 0C777.3 0 731.7 0 686 0C640.3 0 594.7 0 548.8 0C503 0 457 0 411.2 0C365.3 0 319.7 0 274 0C228.3 0 182.7 0 137 0C91.3 0 45.7 0 22.8 0L0 0Z" fill="#784ea8"></path><path d="M0 72L22.8 72.7C45.7 73.3 91.3 74.7 137 76C182.7 77.3 228.3 78.7 274 74.8C319.7 71 365.3 62 411.2 57.3C457 52.7 503 52.3 548.8 56.2C594.7 60 640.3 68 686 72.2C731.7 76.3 777.3 76.7 823 71C868.7 65.3 914.3 53.7 937.2 47.8L960 42L960 0L937.2 0C914.3 0 868.7 0 823 0C777.3 0 731.7 0 686 0C640.3 0 594.7 0 548.8 0C503 0 457 0 411.2 0C365.3 0 319.7 0 274 0C228.3 0 182.7 0 137 0C91.3 0 45.7 0 22.8 0L0 0Z" fill="#9963ca"></path><path d="M0 35L22.8 33.3C45.7 31.7 91.3 28.3 137 27.3C182.7 26.3 228.3 27.7 274 26.3C319.7 25 365.3 21 411.2 24C457 27 503 37 548.8 37.5C594.7 38 640.3 29 686 26.2C731.7 23.3 777.3 26.7 823 28C868.7 29.3 914.3 28.7 937.2 28.3L960 28L960 0L937.2 0C914.3 0 868.7 0 823 0C777.3 0 731.7 0 686 0C640.3 0 594.7 0 548.8 0C503 0 457 0 411.2 0C365.3 0 319.7 0 274 0C228.3 0 182.7 0 137 0C91.3 0 45.7 0 22.8 0L0 0Z" fill="#bc78ec"></path></svg>